# xmcd
#
# Track frame offsets: 
#        150
#        29910
#        58340
#        88094
#        121488
#        150790
#        177488
#        200977
#
# Disc length: 2939 seconds
#
# Revision: 0
# Processed by: cddbd v1.5.2PL0 Copyright (c) Steve Scherf et al.
# Submitted via: ExactAudioCopy v1.0b3
#
DISCID=750b7908
DTITLE=Mdou Moctar - Sousoume Tamachek
DYEAR=1900
DGENRE=Desert Blues
TTITLE0=Anar
TTITLE1=Sousoume Tamachek
TTITLE2=Tanzaka
TTITLE3=Ilmouloud
TTITLE4=Allagh N-Tarha
TTITLE5=Nikali Talit
TTITLE6=Amidini
TTITLE7=Amer Iyn
EXTD=
EXTT0=
EXTT1=
EXTT2=
EXTT3=
EXTT4=
EXTT5=
EXTT6=
EXTT7=
PLAYORDER=
